<?xml version="1.0" standalone="no"?>
<!DOCTYPE svg PUBLIC "-//W3C//DTD SVG 20010904//EN"
 "http://www.w3.org/TR/2001/REC-SVG-20010904/DTD/svg10.dtd">
<svg version="1.0" xmlns="http://www.w3.org/2000/svg"
 width="176.000000pt" height="176.000000pt" viewBox="0 0 176.000000 176.000000"
 preserveAspectRatio="xMidYMid meet">

<g transform="translate(0.000000,176.000000) scale(0.100000,-0.100000)"
fill="#3F79FF" stroke="none">
<path d="M775 1650 l-100 -100 289 -289 c250 -250 292 -288 308 -280 45 24
128 -32 128 -86 0 -93 -115 -138 -170 -67 -16 20 -21 37 -18 69 l3 43 -287
287 -288 288 -197 -198 -198 -197 289 -289 288 -288 44 5 c38 4 47 1 74 -26
41 -42 42 -92 1 -133 -41 -41 -91 -40 -133 1 -27 27 -30 36 -26 74 l5 44 -288
288 -289 289 -97 -98 -98 -97 433 -433 432 -432 432 432 433 433 -430 430
c-236 236 -432 430 -435 430 -3 0 -50 -45 -105 -100z m-70 -466 c39 -18 60
-61 51 -106 -6 -32 1 -40 279 -318 219 -219 282 -287 273 -297 -6 -7 -14 -13
-19 -13 -5 0 -136 128 -292 284 -262 263 -284 283 -307 274 -56 -21 -120 26
-120 87 0 46 13 71 48 89 35 19 47 19 87 0z"/>
<path d="M642 1128 c-30 -30 3 -77 40 -57 24 13 23 46 -1 59 -24 13 -24 13
-39 -2z"/>
<path d="M1273 904 c-6 -17 6 -45 23 -51 21 -7 47 23 40 45 -9 27 -53 30 -63
6z"/>
<path d="M844 476 c-3 -8 -4 -23 -2 -33 5 -25 61 -25 66 0 7 37 -51 67 -64 33z"/>
</g>
</svg>
